<svg width="15" height="13" viewBox="0 0 15 13" fill="none" xmlns="http://www.w3.org/2000/svg">
<rect width="15" height="13" rx="3" fill="#4F46E5"/>
<path d="M7.5 2.16666C5.01445 2.16666 3 3.96771 3 6.19047C3 7.15 3.37617 8.02827 4.00195 8.7189C3.78223 9.6939 3.04746 10.5625 3.03867 10.5722C3 10.6167 2.98945 10.6824 3.0123 10.7405C3.03516 10.7985 3.08437 10.8333 3.14062 10.8333C4.30605 10.8333 5.17969 10.2182 5.61211 9.83899C6.18691 10.0769 6.825 10.2143 7.5 10.2143C9.98555 10.2143 12 8.41324 12 6.19047C12 3.96771 9.98555 2.16666 7.5 2.16666Z" fill="white"/>
<ellipse cx="7.5" cy="5.95833" rx="0.5" ry="0.541667" fill="#4F46E5"/>
<ellipse cx="7.5" cy="5.95833" rx="0.5" ry="0.541667" fill="#4F46E5"/>
<ellipse cx="5.5" cy="5.95833" rx="0.5" ry="0.541667" fill="#4F46E5"/>
<ellipse cx="5.5" cy="5.95833" rx="0.5" ry="0.541667" fill="#4F46E5"/>
<ellipse cx="9.5" cy="5.95833" rx="0.5" ry="0.541667" fill="#4F46E5"/>
<ellipse cx="9.5" cy="5.95833" rx="0.5" ry="0.541667" fill="#4F46E5"/>
</svg>
