<svg width="21" height="21" viewBox="0 0 21 21" fill="none" xmlns="http://www.w3.org/2000/svg">
<circle cx="10.5" cy="10.5" r="10.5" fill="#D9D9D9"/>
<rect x="3" y="4" width="15" height="13" rx="3" fill="#4F46E5"/>
<path d="M10.5 6.16666C8.01445 6.16666 6 7.96771 6 10.1905C6 11.15 6.37617 12.0283 7.00195 12.7189C6.78223 13.6939 6.04746 14.5625 6.03867 14.5722C6 14.6167 5.98945 14.6824 6.0123 14.7405C6.03516 14.7985 6.08437 14.8333 6.14062 14.8333C7.30605 14.8333 8.17969 14.2182 8.61211 13.839C9.18691 14.0769 9.825 14.2143 10.5 14.2143C12.9855 14.2143 15 12.4132 15 10.1905C15 7.96771 12.9855 6.16666 10.5 6.16666Z" fill="white"/>
<ellipse cx="10.5" cy="9.95833" rx="0.5" ry="0.541667" fill="#4F46E5"/>
<ellipse cx="10.5" cy="9.95833" rx="0.5" ry="0.541667" fill="#4F46E5"/>
<ellipse cx="8.5" cy="9.95833" rx="0.5" ry="0.541667" fill="#4F46E5"/>
<ellipse cx="8.5" cy="9.95833" rx="0.5" ry="0.541667" fill="#4F46E5"/>
<ellipse cx="12.5" cy="9.95833" rx="0.5" ry="0.541667" fill="#4F46E5"/>
<ellipse cx="12.5" cy="9.95833" rx="0.5" ry="0.541667" fill="#4F46E5"/>
</svg>
